<svg width="80" height="80" viewBox="0 0 80 80" fill="none" xmlns="http://www.w3.org/2000/svg">
<rect width="80" height="80" fill="black"/>
<path d="M65.7746 46.8462C66.0137 46.8974 66.2229 46.9231 66.4022 46.9231C66.6413 46.8718 66.8207 46.9744 66.9402 47.2308C67.0598 47.5385 67 47.6667 66.7609 47.6154C66.5816 47.5641 66.4321 47.5641 66.3126 47.6154C66.0137 47.6667 65.7148 47.6923 65.4159 47.6923C65.1768 47.6923 64.9676 47.8205 64.7882 48.0769C64.7882 48.1282 64.7583 48.1795 64.6986 48.2308C64.6986 48.2308 64.6986 48.2564 64.6986 48.3077L64.6089 48.3846C63.6525 48.3333 62.696 48.3846 61.7396 48.5385C60.8429 48.6923 59.9462 48.8974 59.0496 49.1538C58.1529 49.359 57.2562 49.5641 56.3596 49.7692C55.4629 49.9744 54.5364 50.0769 53.5799 50.0769C53.5201 50.0769 53.4006 50.0769 53.2213 50.0769C53.1017 50.0769 53.1017 50.1538 53.2213 50.3077C53.281 50.4103 53.3707 50.4615 53.4903 50.4615C53.6696 50.4103 53.7891 50.4359 53.8489 50.5385C53.9685 50.7949 53.9386 50.8974 53.7593 50.8462C53.6397 50.7949 53.5201 50.8205 53.4006 50.9231C53.1017 51.0256 52.7729 51.0769 52.4143 51.0769C52.0556 51.0256 51.8464 51.2051 51.7866 51.6154C52.1453 51.6667 52.4143 51.7692 52.5936 51.9231C52.7729 52.0256 52.7131 52.2564 52.4143 52.6154C52.2349 52.8205 52.205 52.9744 52.3246 53.0769C52.4441 53.1795 52.5637 53.282 52.6833 53.3846C53.0419 53.5897 53.1615 53.7436 53.0419 53.8462C52.9821 53.9487 52.8028 54.0256 52.5039 54.0769C51.5475 54.2308 50.6508 53.9744 49.8139 53.3077C48.5586 53.1538 47.3332 53.1282 46.1376 53.2308C45.0018 53.3333 43.8661 53.5385 42.7303 53.8462C41.5945 54.1026 40.4587 54.4103 39.323 54.7692C38.247 55.1282 37.1411 55.4872 36.0053 55.8462C34.2717 56.4103 32.5382 57.0513 30.8046 57.7692C29.1309 58.4359 27.487 59.2051 25.873 60.0769C25.2154 60.4359 24.4682 60.5641 23.6313 60.4615C22.914 60.359 22.376 60.5385 22.0173 61C21.5391 61.4615 21.0609 61.6923 20.5827 61.6923C20.0447 61.7436 19.5067 61.641 18.9687 61.3846C17.9524 60.9744 17.0857 60.4359 16.3683 59.7692C15.5912 59.1538 14.844 58.4615 14.1267 57.6923C13.1105 56.5641 12.7817 55.641 13.1403 54.9231C13.4392 54.2051 14.0071 53.4103 14.844 52.5385C16.6373 50.7436 18.4606 48.9744 20.3137 47.2308C22.107 45.4359 24.1394 43.8718 26.411 42.5385C28.9216 40.8974 31.3725 39.2564 33.7636 37.6154C36.1547 35.9231 38.6654 34.3333 41.2956 32.8462C42.1923 32.3333 42.9993 31.7692 43.7166 31.1538C44.4937 30.5385 45.3007 29.9487 46.1376 29.3846C46.556 29.1795 46.7055 28.9744 46.5859 28.7692C46.4664 28.5128 46.3169 28.4359 46.1376 28.5385C45.9583 28.641 45.8088 28.6923 45.6893 28.6923C44.0753 29 42.5211 29.4359 41.0266 30C39.592 30.5641 38.1573 31.1538 36.7226 31.7692C36.0651 32.0256 35.4673 32.359 34.9293 32.7692C34.4511 33.1795 33.8234 33.4872 33.0463 33.6923C32.7474 33.7949 32.5382 33.8462 32.4186 33.8462C32.2991 33.8462 32.1795 33.6667 32.06 33.3077C31.4622 31.9231 31.3725 30.5897 31.791 29.3077C32.2692 28.0256 32.7474 26.7436 33.2256 25.4615C33.4647 24.8462 33.9131 24.4615 34.5706 24.3077C35.2282 24.1026 35.8559 23.9487 36.4536 23.8462C38.1872 23.4872 39.9207 23.1026 41.6543 22.6923C43.3878 22.2821 45.1214 21.9231 46.8549 21.6154C48.6483 21.2564 50.4117 21 52.1453 20.8462C53.9386 20.6923 55.7618 20.6667 57.6149 20.7692C58.0334 20.8205 58.4219 20.8974 58.7806 21C59.199 21.0513 59.6175 21.1282 60.0359 21.2308C60.4543 21.3333 60.7532 21.4872 60.9326 21.6923C61.1717 21.8462 61.1418 22.1538 60.8429 22.6154C60.4245 23.0769 60.6337 23.4872 61.4706 23.8462C62.0683 24.1026 62.4569 24.4359 62.6362 24.8462C62.8156 25.2051 62.6661 25.6667 62.1879 26.2308C62.0086 26.4872 62.0385 26.6923 62.2776 26.8462C62.5167 26.9487 62.6063 27.1026 62.5466 27.3077C62.427 27.6154 62.3373 27.7949 62.2776 27.8462C62.2776 27.8974 62.158 27.7436 61.9189 27.3846C61.7993 27.2308 61.6499 27.2051 61.4706 27.3077C61.2912 27.359 61.2016 27.4872 61.2016 27.6923C61.2016 28.4103 60.9625 28.9231 60.4842 29.2308C60.006 29.4872 59.5278 29.7692 59.0496 30.0769C57.2562 31 55.6124 32.1026 54.1179 33.3846C52.6833 34.6154 51.0394 35.6154 49.1863 36.3846C47.4527 37.1026 45.9284 38 44.6133 39.0769C43.3579 40.1538 42.0428 41.2051 40.668 42.2308C39.5322 43.1026 38.3665 43.9231 37.171 44.6923C36.0352 45.4103 34.9592 46.2564 33.943 47.2308C33.6441 47.4872 33.3751 47.7179 33.136 47.9231C32.9566 48.1282 32.8072 48.4103 32.6876 48.7692C33.8832 48.6667 35.019 48.4872 36.095 48.2308C37.2307 47.9231 38.3665 47.641 39.5023 47.3846C41.4152 46.9231 43.3281 46.5897 45.2409 46.3846C47.2136 46.1282 49.246 46.0769 51.3383 46.2308C53.7294 46.4872 56.1205 46.5897 58.5116 46.5385C60.9027 46.4872 63.3237 46.5897 65.7746 46.8462ZM58.3322 39.6154C59.0496 38.5385 59.9761 37.6923 61.1119 37.0769C62.2477 36.4615 63.4133 35.8462 64.6089 35.2308C63.5927 35.9487 62.696 36.7949 61.9189 37.7692C61.1418 38.7436 60.0957 39.4615 58.7806 39.9231L58.2426 40.3846C58.0035 40.5897 57.7345 40.7436 57.4356 40.8462C57.1965 40.9487 56.9275 40.9231 56.6286 40.7692C56.4492 40.7179 56.3596 40.6154 56.3596 40.4615C56.3596 40.3077 56.3895 40.1795 56.4492 40.0769C56.9275 39.4103 57.5551 39.2564 58.3322 39.6154ZM22.107 47.8462C23.0037 47.2308 23.8107 46.6154 24.528 46C25.3051 45.3846 26.0822 44.641 26.8593 43.7692C24.6475 44.8462 23.0634 46.2051 22.107 47.8462ZM58.6012 19.5385C58.4817 19.5897 58.392 19.5641 58.3322 19.4615C58.2725 19.3077 58.2725 19.1795 58.3322 19.0769C58.6311 18.5641 59.0197 18.3077 59.4979 18.3077C60.0359 18.3077 60.544 18.2051 61.0222 18V18.3077C60.7233 18.7179 60.3647 19 59.9462 19.1538C59.5278 19.3077 59.0795 19.4359 58.6012 19.5385ZM60.3049 41.8462C60.4245 41.5897 60.5739 41.4359 60.7532 41.3846C60.9923 41.3333 61.2613 41.2564 61.5602 41.1538C61.7993 41.1026 62.0086 41.0256 62.1879 40.9231C62.3672 40.8205 62.5765 40.7179 62.8156 40.6154C62.9351 40.9744 62.8753 41.2564 62.6362 41.4615C62.4569 41.6154 62.3075 41.7436 62.1879 41.8462C61.6499 42.2051 61.082 42.3077 60.4842 42.1538C60.3049 42 60.2451 41.8974 60.3049 41.8462ZM34.9293 60.9231C34.9293 61.4872 34.5706 61.8462 33.8533 62C33.5544 61.9487 33.4647 61.7692 33.5843 61.4615C33.6441 61.2051 33.7636 60.9487 33.943 60.6923C34.1223 60.4872 34.3614 60.359 34.6603 60.3077C34.8396 60.2564 34.9293 60.3077 34.9293 60.4615C34.9891 60.6667 34.9891 60.8205 34.9293 60.9231ZM50.6209 57.0769C50.5014 57.3846 50.2921 57.5385 49.9933 57.5385C49.6944 57.5385 49.5449 57.4103 49.5449 57.1538C49.6645 56.8974 49.8737 56.7179 50.1726 56.6154C50.591 56.5128 50.7405 56.6667 50.6209 57.0769Z" fill="url(#paint0_linear_235_2687)"/>
<defs>
<linearGradient id="paint0_linear_235_2687" x1="15.5147" y1="23.72" x2="68.5142" y2="26.4588" gradientUnits="userSpaceOnUse">
<stop stop-color="#E60283"/>
<stop offset="0.5" stop-color="#F1D507"/>
<stop offset="0.902385" stop-color="#DA4A02"/>
</linearGradient>
</defs>
</svg>
