<svg width="162" height="64" viewBox="0 0 162 64" fill="none" xmlns="http://www.w3.org/2000/svg">
<path d="M62.7746 38.8462C63.0137 38.8974 63.2229 38.9231 63.4022 38.9231C63.6413 38.8718 63.8207 38.9744 63.9402 39.2308C64.0598 39.5385 64 39.6667 63.7609 39.6154C63.5816 39.5641 63.4321 39.5641 63.3126 39.6154C63.0137 39.6667 62.7148 39.6923 62.4159 39.6923C62.1768 39.6923 61.9676 39.8205 61.7882 40.0769C61.7882 40.1282 61.7583 40.1795 61.6986 40.2308C61.6986 40.2308 61.6986 40.2564 61.6986 40.3077L61.6089 40.3846C60.6525 40.3333 59.696 40.3846 58.7396 40.5385C57.8429 40.6923 56.9462 40.8974 56.0496 41.1538C55.1529 41.359 54.2562 41.5641 53.3596 41.7692C52.4629 41.9744 51.5364 42.0769 50.5799 42.0769C50.5201 42.0769 50.4006 42.0769 50.2213 42.0769C50.1017 42.0769 50.1017 42.1538 50.2213 42.3077C50.281 42.4103 50.3707 42.4615 50.4903 42.4615C50.6696 42.4103 50.7891 42.4359 50.8489 42.5385C50.9685 42.7949 50.9386 42.8974 50.7593 42.8462C50.6397 42.7949 50.5201 42.8205 50.4006 42.9231C50.1017 43.0256 49.7729 43.0769 49.4143 43.0769C49.0556 43.0256 48.8464 43.2051 48.7866 43.6154C49.1453 43.6667 49.4143 43.7692 49.5936 43.9231C49.7729 44.0256 49.7131 44.2564 49.4143 44.6154C49.2349 44.8205 49.205 44.9744 49.3246 45.0769C49.4441 45.1795 49.5637 45.282 49.6833 45.3846C50.0419 45.5897 50.1615 45.7436 50.0419 45.8462C49.9821 45.9487 49.8028 46.0256 49.5039 46.0769C48.5475 46.2308 47.6508 45.9744 46.8139 45.3077C45.5586 45.1538 44.3332 45.1282 43.1376 45.2308C42.0018 45.3333 40.8661 45.5385 39.7303 45.8462C38.5945 46.1026 37.4587 46.4103 36.323 46.7692C35.247 47.1282 34.1411 47.4872 33.0053 47.8462C31.2717 48.4103 29.5382 49.0513 27.8046 49.7692C26.1309 50.4359 24.487 51.2051 22.873 52.0769C22.2154 52.4359 21.4682 52.5641 20.6313 52.4615C19.914 52.359 19.376 52.5385 19.0173 53C18.5391 53.4615 18.0609 53.6923 17.5827 53.6923C17.0447 53.7436 16.5067 53.641 15.9687 53.3846C14.9524 52.9744 14.0857 52.4359 13.3683 51.7692C12.5912 51.1538 11.844 50.4615 11.1267 49.6923C10.1105 48.5641 9.78168 47.641 10.1403 46.9231C10.4392 46.2051 11.0071 45.4103 11.844 44.5385C13.6373 42.7436 15.4606 40.9744 17.3137 39.2308C19.107 37.4359 21.1394 35.8718 23.411 34.5385C25.9216 32.8974 28.3725 31.2564 30.7636 29.6154C33.1547 27.9231 35.6654 26.3333 38.2956 24.8462C39.1923 24.3333 39.9993 23.7692 40.7166 23.1538C41.4937 22.5385 42.3007 21.9487 43.1376 21.3846C43.556 21.1795 43.7055 20.9744 43.5859 20.7692C43.4664 20.5128 43.3169 20.4359 43.1376 20.5385C42.9583 20.641 42.8088 20.6923 42.6893 20.6923C41.0753 21 39.5211 21.4359 38.0266 22C36.592 22.5641 35.1573 23.1538 33.7226 23.7692C33.0651 24.0256 32.4673 24.359 31.9293 24.7692C31.4511 25.1795 30.8234 25.4872 30.0463 25.6923C29.7474 25.7949 29.5382 25.8462 29.4186 25.8462C29.2991 25.8462 29.1795 25.6667 29.06 25.3077C28.4622 23.9231 28.3725 22.5897 28.791 21.3077C29.2692 20.0256 29.7474 18.7436 30.2256 17.4615C30.4647 16.8462 30.9131 16.4615 31.5706 16.3077C32.2282 16.1026 32.8559 15.9487 33.4536 15.8462C35.1872 15.4872 36.9207 15.1026 38.6543 14.6923C40.3878 14.2821 42.1214 13.9231 43.8549 13.6154C45.6483 13.2564 47.4117 13 49.1453 12.8462C50.9386 12.6923 52.7618 12.6667 54.6149 12.7692C55.0334 12.8205 55.4219 12.8974 55.7806 13C56.199 13.0513 56.6175 13.1282 57.0359 13.2308C57.4543 13.3333 57.7532 13.4872 57.9326 13.6923C58.1717 13.8462 58.1418 14.1538 57.8429 14.6154C57.4245 15.0769 57.6337 15.4872 58.4706 15.8462C59.0683 16.1026 59.4569 16.4359 59.6362 16.8462C59.8156 17.2051 59.6661 17.6667 59.1879 18.2308C59.0086 18.4872 59.0385 18.6923 59.2776 18.8462C59.5167 18.9487 59.6063 19.1026 59.5466 19.3077C59.427 19.6154 59.3373 19.7949 59.2776 19.8462C59.2776 19.8974 59.158 19.7436 58.9189 19.3846C58.7993 19.2308 58.6499 19.2051 58.4706 19.3077C58.2912 19.359 58.2016 19.4872 58.2016 19.6923C58.2016 20.4103 57.9625 20.9231 57.4842 21.2308C57.006 21.4872 56.5278 21.7692 56.0496 22.0769C54.2562 23 52.6124 24.1026 51.1179 25.3846C49.6833 26.6154 48.0394 27.6154 46.1863 28.3846C44.4527 29.1026 42.9284 30 41.6133 31.0769C40.3579 32.1538 39.0428 33.2051 37.668 34.2308C36.5322 35.1026 35.3665 35.9231 34.171 36.6923C33.0352 37.4103 31.9592 38.2564 30.943 39.2308C30.6441 39.4872 30.3751 39.7179 30.136 39.9231C29.9566 40.1282 29.8072 40.4103 29.6876 40.7692C30.8832 40.6667 32.019 40.4872 33.095 40.2308C34.2307 39.9231 35.3665 39.641 36.5023 39.3846C38.4152 38.9231 40.3281 38.5897 42.2409 38.3846C44.2136 38.1282 46.246 38.0769 48.3383 38.2308C50.7294 38.4872 53.1205 38.5897 55.5116 38.5385C57.9027 38.4872 60.3237 38.5897 62.7746 38.8462ZM55.3322 31.6154C56.0496 30.5385 56.9761 29.6923 58.1119 29.0769C59.2477 28.4615 60.4133 27.8462 61.6089 27.2308C60.5927 27.9487 59.696 28.7949 58.9189 29.7692C58.1418 30.7436 57.0957 31.4615 55.7806 31.9231L55.2426 32.3846C55.0035 32.5897 54.7345 32.7436 54.4356 32.8462C54.1965 32.9487 53.9275 32.9231 53.6286 32.7692C53.4492 32.7179 53.3596 32.6154 53.3596 32.4615C53.3596 32.3077 53.3895 32.1795 53.4492 32.0769C53.9275 31.4103 54.5551 31.2564 55.3322 31.6154ZM19.107 39.8462C20.0037 39.2308 20.8107 38.6154 21.528 38C22.3051 37.3846 23.0822 36.641 23.8593 35.7692C21.6475 36.8462 20.0634 38.2051 19.107 39.8462ZM55.6012 11.5385C55.4817 11.5897 55.392 11.5641 55.3322 11.4615C55.2725 11.3077 55.2725 11.1795 55.3322 11.0769C55.6311 10.5641 56.0197 10.3077 56.4979 10.3077C57.0359 10.3077 57.544 10.2051 58.0222 10V10.3077C57.7233 10.7179 57.3647 11 56.9462 11.1538C56.5278 11.3077 56.0795 11.4359 55.6012 11.5385ZM57.3049 33.8462C57.4245 33.5897 57.5739 33.4359 57.7532 33.3846C57.9923 33.3333 58.2613 33.2564 58.5602 33.1538C58.7993 33.1026 59.0086 33.0256 59.1879 32.9231C59.3672 32.8205 59.5765 32.7179 59.8156 32.6154C59.9351 32.9744 59.8753 33.2564 59.6362 33.4615C59.4569 33.6154 59.3075 33.7436 59.1879 33.8462C58.6499 34.2051 58.082 34.3077 57.4842 34.1538C57.3049 34 57.2451 33.8974 57.3049 33.8462ZM31.9293 52.9231C31.9293 53.4872 31.5706 53.8462 30.8533 54C30.5544 53.9487 30.4647 53.7692 30.5843 53.4615C30.6441 53.2051 30.7636 52.9487 30.943 52.6923C31.1223 52.4872 31.3614 52.359 31.6603 52.3077C31.8396 52.2564 31.9293 52.3077 31.9293 52.4615C31.9891 52.6667 31.9891 52.8205 31.9293 52.9231ZM47.6209 49.0769C47.5014 49.3846 47.2921 49.5385 46.9933 49.5385C46.6944 49.5385 46.5449 49.4103 46.5449 49.1538C46.6645 48.8974 46.8737 48.7179 47.1726 48.6154C47.591 48.5128 47.7405 48.6667 47.6209 49.0769Z" fill="url(#paint0_linear_235_1999)"/>
<path d="M84.448 28.728L76.448 36.696V39.032H84.448V43H72.48V35.032L80.48 27.064V24.6H72.48V20.632H84.448V28.728ZM97.0328 20.632V28.728L93.0328 32.664V43H89.0648V32.824L85.0648 28.728V20.632H89.0328V27.064L90.9208 28.92L93.0648 26.744V20.632H97.0328ZM108.1 20.6L110.084 22.616V30.36L102.084 38.328V43H98.1163V20.6H108.1ZM106.116 28.696V24.6H102.084V32.696L106.116 28.696ZM119.241 20.632H123.209V43H119.241V32.92L115.209 36.92V43H111.241V20.632H115.209V30.968V31.32L119.241 27.32V20.632ZM135.036 20.6L137.02 22.616V41.016L135.036 43H127.036L125.052 41.016V22.616L127.036 20.6H135.036ZM133.052 39.032V24.6H129.02V39.032H133.052ZM146.866 20.6H150.834V43H146.866V33.464L142.834 29.464V43H138.866V20.6H142.834V23.832L146.866 27.864V20.6Z" fill="white"/>
<defs>
<linearGradient id="paint0_linear_235_1999" x1="12.5147" y1="15.72" x2="65.5142" y2="18.4588" gradientUnits="userSpaceOnUse">
<stop stop-color="#E60283"/>
<stop offset="0.5" stop-color="#F1D507"/>
<stop offset="0.902385" stop-color="#DA4A02"/>
</linearGradient>
</defs>
</svg>
